<?xml version="1.0" encoding="UTF-8" standalone="no"?>
<!-- Created with Inkscape (http://www.inkscape.org/) -->

<svg
   xmlns:dc="http://purl.org/dc/elements/1.1/"
   xmlns:cc="http://creativecommons.org/ns#"
   xmlns:rdf="http://www.w3.org/1999/02/22-rdf-syntax-ns#"
   xmlns:svg="http://www.w3.org/2000/svg"
   xmlns="http://www.w3.org/2000/svg"
   version="1.1"
   width="765"
   height="990"
   id="svg3289">
  <defs
     id="defs3291" />
  <metadata
     id="metadata3294">
    <rdf:RDF>
      <cc:Work
         rdf:about="">
        <dc:format>image/svg+xml</dc:format>
        <dc:type
           rdf:resource="http://purl.org/dc/dcmitype/StillImage" />
        <dc:title></dc:title>
      </cc:Work>
    </rdf:RDF>
  </metadata>
  <g
     transform="translate(0,-62.362183)"
     id="layer1">
    <path
       d="m 515.51531,413.56123 c 0.2545,0.47527 23.90148,14.12625 28.1789,19.57192 1.96548,0.63778 3.82669,1.03333 6.40235,0.67458 2.54193,3.58752 7.53379,4.7343 14.00666,4.37554 2.499,2.41008 5.39661,4.39702 8.10105,6.58939 -1.64964,2.25677 -0.0858,6.13251 1.68644,9.4502 1.11919,2.10039 4.88762,4.76497 4.54726,7.07999 -0.44767,3.07546 -7.51846,2.84242 -8.76949,5.7431 0.86162,2.70444 -0.27596,11.43101 0.85242,12.47967 0.59792,0.55499 2.97427,2.47753 3.53539,3.03559 1.25104,1.21731 3.45567,1.15292 4.38168,2.36715 1.7815,2.31809 1.75084,8.2329 2.21078,11.47087 0.53659,3.91868 -2.21078,35.9764 -4.05053,39.82148 -1.34915,2.75657 -5.50393,3.05399 -7.60125,4.72204 -0.44768,-0.94441 -5.88108,5.36288 -7.08612,8.93814 -1.47794,4.82015 -0.81256,9.6955 -2.86389,13.49766 -0.99653,1.83976 -8.76949,8.70817 -12.99479,9.10985 -1.57913,0.14424 -2.5542,-0.34649 -3.71324,0 -8.98107,2.66764 -4.80176,13.01933 -7.08305,21.08665 -0.63472,2.24144 -1.63125,5.0256 0,8.43221 0.74203,1.55766 2.4806,2.30889 4.38168,3.04173 0.2545,1.16824 3.29929,1.98693 4.21917,2.02986 0.4722,0.24836 7.97226,3.18584 9.78749,5.7339 4.84162,-2.41928 6.4882,-8.03053 10.29036,-11.47394 3.35142,-0.089 6.58632,-1.78456 5.7339,-6.08038 2.53579,-0.77883 9.68324,-11.29609 10.46207,-16.02733 2.29356,-1.03026 8.41381,-8.05506 10.63378,-6.58632 3.24716,-3.16131 11.32675,-1.47794 11.79589,-7.41421 3.00493,-0.66231 4.09039,-3.24103 8.44447,-2.52966 0.69297,2.34262 10.65831,5.53459 10.97413,5.90868 3.41582,2.13718 4.63005,6.49739 6.23677,10.45593 4.70671,6.5158 6.41768,16.14385 6.91135,25.13411 0.59178,10.66138 3.74083,21.62938 4.90294,32.06999 0.45381,4.11491 1.38288,8.52112 2.0176,12.4766 0.26676,1.64964 1.72937,3.60898 2.02373,5.72776 0.14718,1.03027 1.51779,4.18238 2.02373,5.06239 0.96587,1.70178 2.57259,5.83203 2.53579,7.76377 -0.052,2.42234 -2.94667,5.15131 -3.55072,7.9324 -0.40168,1.91641 -0.47527,8.69898 -0.16239,10.96494 0.74816,5.61738 -2.85775,9.85495 -3.53233,15.34968 -1.05479,0.0123 -3.79603,1.16211 -5.57752,0.68684 -1.01187,-0.28516 -1.10999,-1.50859 -1.84282,-2.20157 -3.39128,-3.16131 -8.38622,-1.95934 -11.31449,0.17466 -0.48447,0.34035 -7.71471,12.18224 -8.10719,16.53325 -0.14423,1.74164 0.65312,3.26557 0.51514,4.71591 -0.22985,2.38248 -1.61899,6.12945 -3.0356,8.26663 -2.61245,3.93094 -9.67404,3.60591 -12.9948,7.75763 -1.12225,1.40741 -5.20037,15.26382 -5.40581,18.06025 -0.17171,2.60939 0.91068,4.94894 0.52127,7.07999 -0.4998,2.61552 -16.90428,29.21223 -19.40941,31.38314 -29.12944,1.13145 -61.74522,1.70484 -91.09543,2.02373 -1.18971,-1.22957 0.0245,-3.94321 -1.018,-5.40275 -46.59178,-1.67111 -96.99491,-0.19624 -143.23407,-1.68337 2.95281,-3.78376 16.61298,-23.58872 19.39408,-29.01599 -1.05786,-4.85389 5.70323,-5.32302 5.2341,-10.12478 4.00146,-2.43461 7.10452,-10.81469 8.26969,-16.53019 0.34036,-1.66498 3.92788,-23.31582 4.04746,-26.15518 0.14718,-3.86961 2.87002,-7.74843 1.52087,-12.9856 0.95973,-0.66537 -0.34342,-9.75376 -0.67151,-13.83801 -0.57339,-6.98187 -3.21038,-15.91388 -5.57446,-22.43274 -1.33689,-3.68564 -12.05346,-29.53726 -12.82615,-33.57552 -1.02413,-5.33528 -6.63232,-10.38541 -5.22797,-16.19903 1.02106,-4.25597 7.14744,-14.93574 8.26663,-16.35848 -0.10426,-0.90455 -3.19504,-15.49074 -5.73084,-21.09892 1.2541,-0.34955 1.0548,-5.15744 2.5358,-6.24597 3.7347,-2.7443 5.92094,-9.17117 7.75456,-14.00359 0.63165,-1.69258 4.74044,-8.87375 5.56526,-10.9588 0.95667,-0.45074 3.30849,-17.20477 3.54459,-20.41208 0.2913,-3.91561 0.16239,-12.75256 -2.19237,-13.16037 1.89801,0.0827 3.36368,-2.71364 6.7427,-3.37595 2.66457,-0.51513 4.9704,-0.69604 5.40274,-3.54153 0.12878,-0.84935 0.41395,-4.25903 0.50593,-5.05932 0.22078,-2.0544 -0.87081,-4.52273 -0.84628,-6.58326 0.39248,-1.01186 1.12531,-1.68951 2.02373,-2.19237 5.76149,4.33569 5.2433,-5.4886 9.10678,-5.22797 1.55766,0.10131 2.0268,1.86428 3.7163,2.19237 4.81096,0.0859 13.29223,-20.28942 16.70804,-24.29702 1.13145,0.0491 2.15558,0.21464 2.52966,1.01187 -0.0429,1.76616 -5.16051,14.50953 -5.39661,20.58072 -0.19943,4.84162 -0.18717,10.04812 0.17171,13.83801 0.22396,2.51433 9.35822,6.93894 10.62151,4.72817 -0.10425,-2.7535 5.43341,-10.14318 6.7519,-12.65137 1.78456,-4.63312 3.33609,-17.85789 3.02333,-18.22277 -1.60365,-8.26663 -3.03253,-21.62631 7.59819,-22.27329 0.79722,-0.37715 7.07079,-5.93934 10.97413,-5.73697 1.08546,0.0584 2.18318,0.91988 3.36675,0.84935 3.2441,-0.20237 6.20304,-2.53886 9.10985,-3.03866 0.16239,-1.56685 -0.42927,-2.38554 -0.83709,-3.37595 -3.27476,-1.60978 -9.83962,-1.78456 -11.31142,-5.06545 -3.13065,-6.9972 8.61312,-20.63898 10.46514,-21.92374 0.80949,-2.73817 -1.47181,-3.2533 -1.69258,-4.39395 3.29623,-0.19943 12.7219,-1.78456 12.82616,-3.02946 1.10998,-0.53353 2.59712,-0.67458 3.7071,-1.18971 0.68684,0.73283 11.0048,6.51886 14.67817,9.95921 0.91375,0.84935 6.68751,2.55419 7.59819,2.36101 5.39354,-1.14984 9.86415,2.11879 14.6751,3.37289"
       id="path108"
       style="fill:#100f0d;fill-opacity:1;fill-rule:evenodd;stroke:none" />
    <path
       d="m 276.76733,236.76697 c -2.43154,0.65925 -19.83255,2.10652 -15.85561,6.07426 -6.2245,6.19997 -15.18411,9.68937 -20.58379,16.7111 -0.74816,0.48447 -4.24063,6.016 -6.23676,9.27543 -1.18971,1.93481 -3.11225,7.28236 -4.73124,7.07998 -1.43501,-0.17489 -3.69484,7.80056 -4.37555,10.96187 -0.2545,1.14065 -0.94134,6.24597 -0.86161,7.09839 0.11332,0.93521 5.37514,-0.29436 7.77602,-2.36102 3.98307,-3.45874 8.61925,-8.9964 12.64831,-8.44754 4.026,0.54886 15.88015,3.87269 20.58685,3.89108 0.17466,0.43235 2.88842,2.22304 3.71324,3.03253 2.49287,-2.1985 2.87002,-0.34342 4.21304,1.52393 1.07319,1.4718 5.9608,4.83549 6.40848,4.20997 4.78642,1.18664 8.45673,11.67938 9.10985,12.15158 -0.0196,4.06892 3.89721,4.20077 4.05359,8.08879 1.67724,1.7355 4.24677,8.00599 4.89068,8.9504 2.4806,3.62738 16.42287,4.55339 17.21397,4.7251 1.7079,-3.88495 9.9776,-8.09492 11.97373,-2.03293 -0.35262,0.72364 1.2449,2.61859 3.19811,3.54153 1.57912,0.76043 2.16784,3.13372 4.55952,2.87308 1.77536,-0.19624 2.10345,-3.08772 3.71324,-3.7163 2.57872,-0.98427 3.66724,1.80296 5.39661,3.21037 0.85242,-0.11333 2.81789,1.94707 3.88802,2.0176 2.28129,0.16876 3.74083,-4.24064 5.05932,-6.40235 0.70217,-1.14371 3.60592,-2.72897 5.22797,-3.87881 0.87695,-0.61632 6.55872,-2.34875 8.4322,-3.0448 1.3001,-0.45993 1.60059,-1.90107 2.69831,-3.02946 3.17358,-3.28089 26.79602,-12.1761 33.40994,-8.76949 4.78949,0.29129 9.97147,-0.93214 12.82922,1.17131 2.2077,-1.31543 5.90868,-0.22985 8.26356,-0.50287 0.36795,1.4902 1.10692,2.90988 0.66538,4.7343 0.88615,-0.83095 4.2529,-0.57952 6.24596,-0.84935 2.22611,-1.30316 4.75577,-6.59859 4.04746,-7.08612 2.31809,-4.80789 8.96574,-4.2621 13.83496,-4.89068 -1.88575,1.51473 0.4354,6.26743 0.84935,4.89068 1.83975,0.0613 3.39128,0.42008 3.7071,2.03293 -1.76616,0.62245 0.35876,4.24676 1.68338,5.05319 1.11612,2.51126 1.81522,6.08039 -0.66538,7.58899 -0.7727,7.41727 5.95467,9.01786 12.81696,8.76949 4.25289,4.90908 10.52032,-0.4814 14.34088,-2.36102 0.64391,0.509 4.67298,6.81936 5.06239,6.91135 2.18318,0.61018 3.28703,-1.98387 5.73084,-2.18011 3.44034,-0.28823 2.69524,0.59179 4.21917,-2.37022 1.39208,-2.68297 4.9428,-4.94894 8.93813,-4.05052 -1.09772,3.20423 3.07853,4.17317 3.37902,7.59205 0.0336,0.43847 1.08852,3.52313 1.68644,4.55952 1.19278,2.06666 1.32156,5.51926 0.84935,7.93548 0.84936,1.04252 2.44688,1.37368 2.18931,3.53846 -1.4626,2.07892 -4.76189,2.31502 -5.21877,5.40274 1.34916,1.21424 2.42848,2.72284 3.02946,4.71284 1.18358,-1.96241 4.26517,-2.0176 6.74577,-2.68911 1.19277,2.40088 4.05972,3.13678 6.06812,4.71897 -1.37368,1.71404 -2.65538,3.47714 0,4.7251 -0.14423,1.38902 0.28517,2.19238 0.509,3.20424 1.69258,0.61632 3.71631,0.89841 4.0444,2.86695 1.83668,-0.86775 3.74696,-0.27903 4.89681,0.84016 0.10131,0.92601 0.39861,1.72937 0.17784,2.53579 -0.91681,1.22344 -6.86228,-1.22957 -6.92361,-0.16558 -6.79176,0.87695 -15.85868,-2.42847 -24.29089,-1.84895 -1.45954,0.0949 -2.99266,0.97507 -4.04746,0.83096 -1.31849,-0.16853 -1.91641,-1.39515 -3.37595,-1.018 -0.71137,0.1933 -0.95973,1.14371 -1.52699,1.35835 -2.2445,0.86468 -8.9964,-5.61738 -12.30796,-5.06546 -2.7351,0.46301 -1.47793,4.60552 -2.70137,7.08612 -0.81256,1.64045 -4.15171,3.23184 -1.34609,5.56833 0.0461,0.85242 0.2453,3.95853 -0.67764,4.7251 -4.86922,-0.5366 -8.75416,-2.04213 -10.45594,-5.73697 -1.67724,-0.52126 -3.65804,-1.44421 -3.37901,-3.37288 0.65311,-0.5366 -2.60325,-5.32609 -4.04746,-4.37555 -0.80949,0.0123 -0.60099,-0.99653 -1.18971,-1.19584 -7.17504,-0.54886 -17.05145,-6.61698 -24.62818,-7.75763 -2.82708,-0.41395 -5.97613,-0.96587 -8.60698,-0.33116 -3.55686,0.84629 -3.78989,6.06813 -7.42341,7.58899 -0.0368,8.91054 -14.75176,2.93441 -19.90307,6.58019 -0.81256,0.57032 -1.40128,2.52966 -2.5266,2.69217 -3.1981,0.49367 -6.14478,-2.962 -9.12211,-3.20117 -6.36862,-0.51513 -14.84989,1.14371 -16.85828,6.24903 -0.79723,2.01147 -0.35262,3.08772 -1.35222,5.56219 -0.80336,1.99307 -5.79216,6.79789 -8.2697,7.92321 -2.37942,1.10079 -9.29076,10.06653 -11.63951,12.82309 -2.92214,-0.47527 -2.40088,-6.88375 -2.36409,-7.7515 3.85122,-0.13786 8.97187,-11.31142 10.45594,-14.17837 -0.42621,-4.10572 -4.81096,-3.62432 -7.08612,-1.34302 -0.0827,1.15904 -0.50593,1.95627 -1.00573,2.69524 -1.33382,0.35261 -3.28703,0.0765 -4.89681,0.17171 -0.96894,-0.42315 -0.91375,-1.91335 -1.85202,-2.36102 -1.42275,-0.0707 -2.36715,0.32502 -3.21344,0.83709 0.49367,4.35715 -4.54726,11.13051 -7.91708,12.99173 -1.08852,0.59792 -3.2533,0.509 -4.40314,0.51513 -1.86429,-2.31503 0.4722,-7.19344 -1.51473,-10.13091 0.38328,-3.0264 5.7063,-5.57139 2.37635,-8.60392 -2.32116,0.60712 -3.75617,2.79949 -3.38822,5.56219 -1.04866,2.31502 -4.58712,3.18584 -4.38475,6.08345 0.21464,2.97121 2.54193,6.07119 -1.34302,8.09799 -0.66231,0.34648 -1.54232,0.16557 -2.19544,0.50286 -4.41234,2.2905 -4.54112,9.23557 -9.27849,11.30836 -4.7251,18.54473 -16.9564,29.61085 -25.14024,44.69683 -3.44341,-2.20157 -8.25743,-3.38821 -8.10105,-7.41727 0.0827,-1.81523 1.65577,-4.06893 2.20463,-5.89641 0.92601,-3.14598 4.29276,-7.71777 4.21304,-9.95921 -0.0338,-0.89534 -1.7079,-3.01719 -2.86695,-3.04172 -1.68337,-0.0339 -2.93441,2.81482 -4.89988,3.21037 -2.38555,0.4814 -7.20877,0.0491 -7.58898,-2.02987 -0.22396,-1.2449 1.03026,-5.76149 1.1805,-6.58325 0.40782,-2.08812 4.10266,-3.02026 4.55953,-5.39355 0.509,-2.63084 -0.9812,-4.22836 -1.51473,-6.91134 6.37781,-1.29703 -0.28516,-7.18117 0.16558,-9.28156 0.40781,-1.93787 4.15784,-2.16478 0.84015,-5.06239 -0.4906,-0.42621 -3.88801,-3.63659 -5.05626,-4.22224 -2.7167,-1.34302 -16.39527,-3.70711 -16.20823,-7.58899 0.11038,-1.9992 3.35755,-2.60938 3.55379,-4.21917 0.0307,-0.28209 -1.02413,-3.33608 -1.52393,-4.38168 -0.84629,-1.79989 -5.31382,-2.9988 -7.75763,-3.38208 -1.13452,-0.16558 -5.34755,-1.33689 -6.2337,-1.51473 -1.61899,-0.31583 -5.71857,-2.27516 -6.59859,-2.35182 -5.00413,-0.50593 -7.26396,-4.33569 -12.30182,-2.88228 -0.85242,0.24837 -1.67111,1.57299 -2.52966,1.68644 -2.18931,0.30356 -4.09959,-3.23797 -7.10145,-3.54153 -2.14945,-0.21782 -3.56299,0.0827 -5.56219,-0.33729 -7.10452,-2.75349 -12.40915,-8.9412 -19.73137,-11.80202 -5.41501,-2.12492 -12.11785,-2.44994 -16.37075,-5.74003 -0.96893,0.40781 -16.76936,-4.10572 -21.58951,-5.56526 -5.85655,-1.77536 -11.24703,-3.04479 -16.20517,-4.72817 -0.29436,-0.41701 -10.49273,-3.59365 -15.0124,-4.71897 -3.06012,-7.34368 -4.01373,-16.79082 -12.823082,-18.39141 -0.456872,-0.65924 -0.355686,-1.88575 -1.005732,-2.35795 -8.557924,1.80296 -5.163577,-3.35755 1.005732,-4.05052 3.449542,-0.39555 26.572182,-12.7495 32.735362,-19.23464 6.83775,-4.48593 31.59471,-2.74736 34.25009,-4.55339 4.06586,-2.76883 9.04852,-5.11758 11.9768,-8.10105 0.50287,-6.30422 9.16811,-3.58752 14.50953,-4.88761 2.52046,-0.62858 3.19811,-3.76537 3.87575,-6.41768 3.04786,-4.27129 7.38355,-7.23943 12.31409,-9.61271 0.71137,-3.07239 8.37088,-4.12105 9.28156,-6.58019 7.10145,-2.47447 8.31262,-11.69471 15.18104,-14.50646 5.55912,-2.27517 10.50806,-6.01907 16.54552,-6.92975 3.90948,1.018 8.26356,-1.31235 12.82309,-0.67151 2.29969,0.33729 4.60551,1.81523 6.74576,0.33729 2.45914,0.41395 4.96121,0.33422 6.56792,1.85509 0.0675,1.4626 1.26637,1.77843 1.35222,3.2073"
       id="path110"
       style="fill:#100f0d;fill-opacity:1;fill-rule:evenodd;stroke:none" />
    <path
       d="m 304.2502,210.38183 c -2.43154,0.65925 -19.83255,2.10959 -15.85869,6.08039 -6.22143,6.1969 -15.18103,9.68324 -20.58071,16.70803 -0.74817,0.48141 -4.24064,6.016 -6.23677,9.27236 -1.18971,1.93788 -3.11225,7.28543 -4.73123,7.08306 -1.43501,-0.17784 -3.69484,7.80056 -4.37555,10.9588 -0.2545,1.14372 -0.94134,6.24597 -0.86162,7.10145 0.11038,0.93521 5.37515,-0.29129 7.77603,-2.36408 3.98306,-3.45874 8.61924,-8.99333 12.64831,-8.44447 4.02599,0.55192 15.88014,3.87575 20.58685,3.89414 0.1749,0.42928 2.88841,2.21691 3.71324,3.0264 2.49286,-2.19544 2.87001,-0.34036 4.21303,1.52393 1.07319,1.47487 5.96081,4.83855 6.40848,4.20997 4.78643,1.18971 8.45674,11.68244 9.10985,12.15158 -0.0172,4.07199 3.89721,4.20384 4.05359,8.09185 1.67724,1.7355 4.24677,8.006 4.89068,8.95347 2.47754,3.62125 16.42288,4.55033 17.21397,4.72204 1.7079,-3.88495 9.9776,-8.09492 11.97067,-2.03293 -0.34956,0.72363 1.24796,2.61551 3.20117,3.54459 1.57912,0.75737 2.16478,3.12758 4.55952,2.86695 1.77537,-0.19011 2.10346,-3.08159 3.71324,-3.71017 2.57566,-0.9904 3.66724,1.79989 5.39661,3.20424 0.85242,-0.11358 2.81789,1.95014 3.88802,2.02066 2.28129,0.16877 3.74083,-4.24063 5.05932,-6.39928 0.70217,-1.14678 3.60592,-2.73203 5.2249,-3.88494 0.88002,-0.61326 6.56179,-2.34569 8.43221,-3.03866 1.30316,-0.46301 1.60365,-1.90415 2.70137,-3.02947 3.17051,-3.28702 26.79602,-12.1761 33.40994,-8.77562 4.78949,0.29436 9.97147,-0.92601 12.82615,1.17437 2.21078,-1.31849 5.91175,-0.2269 8.26663,-0.50286 0.36795,1.48713 1.10692,2.90987 0.66538,4.7343 0.88615,-0.83096 4.2529,-0.57646 6.24597,-0.84936 2.2261,-1.30316 4.75576,-6.59858 4.04746,-7.08918 2.31809,-4.80176 8.96573,-4.2621 13.83495,-4.89068 -1.88882,1.52086 0.43541,6.26743 0.84935,4.89068 1.83976,0.0675 3.38822,0.42621 3.70711,2.03293 -1.76617,0.62551 0.35875,4.24983 1.68337,5.05625 1.11612,2.51127 1.81523,6.08039 -0.66538,7.58592 -0.77269,7.41728 5.95161,9.024 12.81696,8.77256 4.2529,4.90602 10.52033,-0.48446 14.33782,-2.36101 0.64391,0.509 4.67604,6.81935 5.06545,6.91134 2.18318,0.61019 3.28703,-1.9808 5.73084,-2.18011 3.44034,-0.29129 2.69524,0.58872 4.21917,-2.37022 1.39208,-2.68297 4.9428,-4.952 8.93814,-4.05359 -1.09772,3.20731 3.07852,4.17625 3.37901,7.59819 0.0339,0.43541 1.08852,3.517 1.68644,4.55339 1.19278,2.06972 1.32156,5.51926 0.84936,7.93547 0.84935,1.0456 2.44687,1.37369 2.1893,3.54153 -1.4626,2.07586 -4.76189,2.31196 -5.22183,5.40275 1.35222,1.21423 2.43154,2.7259 3.03253,4.71283 1.18051,-1.9624 4.26516,-2.01759 6.74576,-2.68911 1.19278,2.40088 4.05973,3.13679 6.06506,4.71897 -1.37062,1.71404 -2.65231,3.47407 0,4.72204 -0.14105,1.38901 0.28823,2.19544 0.509,3.20731 1.69564,0.61325 3.71937,0.89841 4.04746,2.87001 1.83669,-0.87082 3.7439,-0.28516 4.89374,0.83709 0.10426,0.92601 0.40168,1.73244 0.18079,2.53273 -0.91681,1.22957 -6.86228,-1.2265 -6.92361,-0.16239 -6.79176,0.87695 -15.85868,-2.42848 -24.29089,-1.85202 -1.45954,0.0949 -2.99266,0.9812 -4.04746,0.83402 -1.31849,-0.17171 -1.91641,-1.39208 -3.37901,-1.01493 -0.70831,0.19011 -0.95667,1.14372 -1.527,1.35835 -2.24143,0.86162 -8.99333,-5.61738 -12.30489,-5.06545 -2.7351,0.45993 -1.47793,4.60245 -2.70137,7.07998 -0.81256,1.64045 -4.15171,3.23797 -1.34915,5.57446 0.0491,0.84935 0.24836,3.95547 -0.67458,4.7251 -4.86922,-0.53966 -8.75416,-2.04213 -10.45594,-5.73697 -1.67724,-0.52433 -3.65804,-1.4442 -3.37901,-3.37288 0.65311,-0.53966 -2.60632,-5.32915 -4.04746,-4.38168 -0.80949,0.0123 -0.60099,-0.99347 -1.18971,-1.19277 -7.17504,-0.5458 -17.05452,-6.62005 -24.62818,-7.7607 -2.82708,-0.41088 -5.97613,-0.96281 -8.60698,-0.32809 -3.55686,0.84322 -3.78989,6.06812 -7.42341,7.58899 -0.0368,8.91054 -14.75176,2.9344 -19.90307,6.58325 -0.81563,0.56726 -1.40128,2.5266 -2.5266,2.68911 -3.1981,0.4906 -6.14478,-2.96507 -9.12211,-3.19811 -6.36862,-0.51513 -14.85295,1.14372 -16.85829,6.2429 -0.79722,2.01453 -0.35261,3.09385 -1.35221,5.56526 -0.80336,1.99613 -5.79216,6.79789 -8.27277,7.92321 -2.37635,1.10385 -9.28769,10.06958 -11.63644,12.82308 -2.92521,-0.4722 -2.40088,-6.88374 -2.36409,-7.74843 3.85122,-0.13786 8.97187,-11.31449 10.45594,-14.18144 -0.42621,-4.10265 -4.81096,-3.62738 -7.08612,-1.34302 -0.0827,1.15598 -0.50593,1.95627 -1.00573,2.69218 -1.33382,0.35262 -3.28703,0.0827 -4.89681,0.17784 -0.97201,-0.42928 -0.91375,-1.91641 -1.85202,-2.36715 -1.42275,-0.0675 -2.36715,0.33115 -3.21344,0.84015 0.49367,4.36022 -4.54726,11.13358 -7.91708,12.98867 -1.08852,0.59792 -3.2533,0.509 -4.40314,0.51513 -1.86429,-2.31196 0.4722,-7.19344 -1.51473,-10.12785 0.38328,-3.02333 5.7063,-5.56832 2.37635,-8.60392 -2.32116,0.61019 -3.75617,2.7995 -3.38822,5.56219 -1.04866,2.31809 -4.58712,3.18585 -4.38475,6.08346 0.21464,2.9712 2.54193,6.07425 -1.34302,8.09492 -0.66231,0.34955 -1.54232,0.16852 -2.19544,0.50286 -4.41234,2.2905 -4.54112,9.23864 -9.27849,11.31143 -4.7251,18.54779 -16.9564,29.61085 -25.14024,44.69683 -3.44341,-2.20157 -8.25743,-3.38821 -8.10105,-7.41728 0.0827,-1.81522 1.65578,-4.06585 2.20464,-5.89947 0.926,-3.14292 4.29276,-7.71471 4.21303,-9.95307 -0.0339,-0.90148 -1.7079,-3.02027 -2.86695,-3.04173 -1.68337,-0.0368 -2.93441,2.81176 -4.89988,3.2073 -2.38554,0.48141 -7.20877,0.0491 -7.58898,-2.02679 -0.22396,-1.25104 1.02719,-5.7615 1.18051,-6.58939 0.40781,-2.08506 4.10265,-3.0172 4.55952,-5.39048 0.509,-2.62779 -0.9812,-4.23144 -1.5178,-6.91441 6.38088,-1.29396 -0.28209,-7.17505 0.16852,-9.2785 0.40782,-1.94094 4.15785,-2.16478 0.84016,-5.06239 -0.49367,-0.42621 -3.88802,-3.63965 -5.05626,-4.22223 -2.71977,-1.34609 -16.39528,-3.70711 -16.20824,-7.59206 0.11039,-1.99613 3.35756,-2.60325 3.5538,-4.2161 0.0307,-0.28516 -1.02413,-3.33915 -1.52393,-4.38475 -0.84629,-1.79682 -5.31383,-2.99573 -7.75763,-3.37595 -1.13452,-0.16852 -5.34756,-1.34302 -6.2337,-1.51473 -1.61899,-0.31889 -5.72164,-2.27516 -6.59859,-2.35795 -5.0072,-0.50593 -7.26396,-4.33262 -12.30182,-2.87615 -0.85242,0.2453 -1.67111,1.56686 -2.53273,1.68338 -2.18624,0.30356 -4.09959,-3.23797 -7.09839,-3.54153 -2.14944,-0.21783 -3.56299,0.0859 -5.56219,-0.33729 -7.10452,-2.7535 -12.40914,-8.93814 -19.73136,-11.80202 -5.41501,-2.12492 -12.11785,-2.44994 -16.37075,-5.7431 -0.96894,0.41394 -16.76936,-4.10265 -21.58951,-5.56219 -5.85656,-1.7723 -11.24704,-3.0448 -16.20517,-4.72817 -0.29436,-0.42008 -10.49274,-3.59365 -15.01546,-4.7159 -3.05706,-7.34982 -4.01067,-16.79389 -12.82003,-18.39141 -0.45687,-0.65925 -0.35568,-1.88882 -1.00573,-2.36409 -8.55792,1.80603 -5.16357,-3.35755 1.00573,-4.04439 3.44954,-0.39555 26.57219,-12.75257 32.73537,-19.24077 6.83775,-4.48593 31.59471,-2.7443 34.24702,-4.55339 4.06892,-2.76576 9.05159,-5.11758 11.97987,-8.09798 0.50286,-6.30423 9.16811,-3.58752 14.50953,-4.88762 2.51739,-0.62551 3.1981,-3.76536 3.87575,-6.41767 3.04785,-4.27436 7.38354,-7.23943 12.31102,-9.61578 0.71444,-3.06933 8.37395,-4.11799 9.28462,-6.57713 7.10146,-2.47447 8.31263,-11.69777 15.18104,-14.50952 5.55606,-2.27517 10.50807,-6.016 16.54246,-6.92667 3.91254,1.01799 8.26663,-1.31236 12.82615,-0.66845 2.2997,0.33116 4.60552,1.80909 6.74577,0.33422 2.45914,0.41394 4.95814,0.33116 6.56792,1.85815 0.0675,1.45647 1.26637,1.77843 1.35222,3.20117"
       id="path112"
       style="fill:#ffffff;fill-opacity:1;fill-rule:evenodd;stroke:none" />
    <path
       d="m 304.2502,210.38183 c -2.43154,0.65925 -19.83255,2.10959 -15.85869,6.08039 -6.22143,6.1969 -15.18103,9.68324 -20.58071,16.70803 -0.74817,0.48141 -4.24064,6.016 -6.23677,9.27236 -1.18971,1.93788 -3.11225,7.28543 -4.73123,7.08306 -1.43501,-0.17784 -3.69484,7.80056 -4.37555,10.9588 -0.2545,1.14372 -0.94134,6.24597 -0.86162,7.10145 0.11038,0.93521 5.37515,-0.29129 7.77603,-2.36408 3.98306,-3.45874 8.61924,-8.99333 12.64831,-8.44447 4.02599,0.55192 15.88014,3.87575 20.58685,3.89414 0.1749,0.42928 2.88841,2.21691 3.71324,3.0264 2.49286,-2.19544 2.87001,-0.34036 4.21303,1.52393 1.07319,1.47487 5.96081,4.83855 6.40848,4.20997 4.78643,1.18971 8.45674,11.68244 9.10985,12.15158 -0.0172,4.07199 3.89721,4.20384 4.05359,8.09185 1.67724,1.7355 4.24677,8.006 4.89068,8.95347 2.47754,3.62125 16.42288,4.55033 17.21397,4.72204 1.7079,-3.88495 9.9776,-8.09492 11.97067,-2.03293 -0.34956,0.72363 1.24796,2.61551 3.20117,3.54459 1.57912,0.75737 2.16478,3.12758 4.55952,2.86695 1.77537,-0.19011 2.10346,-3.08159 3.71324,-3.71017 2.57566,-0.9904 3.66724,1.79989 5.39661,3.20424 0.85242,-0.11358 2.81789,1.95014 3.88802,2.02066 2.28129,0.16877 3.74083,-4.24063 5.05932,-6.39928 0.70217,-1.14678 3.60592,-2.73203 5.2249,-3.88494 0.88002,-0.61326 6.56179,-2.34569 8.43221,-3.03866 1.30316,-0.46301 1.60365,-1.90415 2.70137,-3.02947 3.17051,-3.28702 26.79602,-12.1761 33.40994,-8.77562 4.78949,0.29436 9.97147,-0.92601 12.82615,1.17437 2.21078,-1.31849 5.91175,-0.2269 8.26663,-0.50286 0.36795,1.48713 1.10692,2.90987 0.66538,4.7343 0.88615,-0.83096 4.2529,-0.57646 6.24597,-0.84936 2.2261,-1.30316 4.75576,-6.59858 4.04746,-7.08918 2.31809,-4.80176 8.96573,-4.2621 13.83495,-4.89068 -1.88882,1.52086 0.43541,6.26743 0.84935,4.89068 1.83976,0.0675 3.38822,0.42621 3.70711,2.03293 -1.76617,0.62551 0.35875,4.24983 1.68337,5.05625 1.11612,2.51127 1.81523,6.08039 -0.66538,7.58592 -0.77269,7.41728 5.95161,9.024 12.81696,8.77256 4.2529,4.90602 10.52033,-0.48446 14.33782,-2.36101 0.64391,0.509 4.67604,6.81935 5.06545,6.91134 2.18318,0.61019 3.28703,-1.9808 5.73084,-2.18011 3.44034,-0.29129 2.69524,0.58872 4.21917,-2.37022 1.39208,-2.68297 4.9428,-4.952 8.93814,-4.05359 -1.09772,3.20731 3.07852,4.17625 3.37901,7.59819 0.0339,0.43541 1.08852,3.517 1.68644,4.55339 1.19278,2.06972 1.32156,5.51926 0.84936,7.93547 0.84935,1.0456 2.44687,1.37369 2.1893,3.54153 -1.4626,2.07586 -4.76189,2.31196 -5.22183,5.40275 1.35222,1.21423 2.43154,2.7259 3.03253,4.71283 1.18051,-1.9624 4.26516,-2.01759 6.74576,-2.68911 1.19278,2.40088 4.05973,3.13679 6.06506,4.71897 -1.37062,1.71404 -2.65231,3.47407 0,4.72204 -0.14105,1.38901 0.28823,2.19544 0.509,3.20731 1.69564,0.61325 3.71937,0.89841 4.04746,2.87001 1.83669,-0.87082 3.7439,-0.28516 4.89374,0.83709 0.10426,0.92601 0.40168,1.73244 0.18079,2.53273 -0.91681,1.22957 -6.86228,-1.2265 -6.92361,-0.16239 -6.79176,0.87695 -15.85868,-2.42848 -24.29089,-1.85202 -1.45954,0.0949 -2.99266,0.9812 -4.04746,0.83402 -1.31849,-0.17171 -1.91641,-1.39208 -3.37901,-1.01493 -0.70831,0.19011 -0.95667,1.14372 -1.527,1.35835 -2.24143,0.86162 -8.99333,-5.61738 -12.30489,-5.06545 -2.7351,0.45993 -1.47793,4.60245 -2.70137,7.07998 -0.81256,1.64045 -4.15171,3.23797 -1.34915,5.57446 0.0491,0.84935 0.24836,3.95547 -0.67458,4.7251 -4.86922,-0.53966 -8.75416,-2.04213 -10.45594,-5.73697 -1.67724,-0.52433 -3.65804,-1.4442 -3.37901,-3.37288 0.65311,-0.53966 -2.60632,-5.32915 -4.04746,-4.38168 -0.80949,0.0123 -0.60099,-0.99347 -1.18971,-1.19277 -7.17504,-0.5458 -17.05452,-6.62005 -24.62818,-7.7607 -2.82708,-0.41088 -5.97613,-0.96281 -8.60698,-0.32809 -3.55686,0.84322 -3.78989,6.06812 -7.42341,7.58899 -0.0368,8.91054 -14.75176,2.9344 -19.90307,6.58325 -0.81563,0.56726 -1.40128,2.5266 -2.5266,2.68911 -3.1981,0.4906 -6.14478,-2.96507 -9.12211,-3.19811 -6.36862,-0.51513 -14.85295,1.14372 -16.85829,6.2429 -0.79722,2.01453 -0.35261,3.09385 -1.35221,5.56526 -0.80336,1.99613 -5.79216,6.79789 -8.27277,7.92321 -2.37635,1.10385 -9.28769,10.06958 -11.63644,12.82308 -2.92521,-0.4722 -2.40088,-6.88374 -2.36409,-7.74843 3.85122,-0.13786 8.97187,-11.31449 10.45594,-14.18144 -0.42621,-4.10265 -4.81096,-3.62738 -7.08612,-1.34302 -0.0827,1.15598 -0.50593,1.95627 -1.00573,2.69218 -1.33382,0.35262 -3.28703,0.0827 -4.89681,0.17784 -0.97201,-0.42928 -0.91375,-1.91641 -1.85202,-2.36715 -1.42275,-0.0675 -2.36715,0.33115 -3.21344,0.84015 0.49367,4.36022 -4.54726,11.13358 -7.91708,12.98867 -1.08852,0.59792 -3.2533,0.509 -4.40314,0.51513 -1.86429,-2.31196 0.4722,-7.19344 -1.51473,-10.12785 0.38328,-3.02333 5.7063,-5.56832 2.37635,-8.60392 -2.32116,0.61019 -3.75617,2.7995 -3.38822,5.56219 -1.04866,2.31809 -4.58712,3.18585 -4.38475,6.08346 0.21464,2.9712 2.54193,6.07425 -1.34302,8.09492 -0.66231,0.34955 -1.54232,0.16852 -2.19544,0.50286 -4.41234,2.2905 -4.54112,9.23864 -9.27849,11.31143 -4.7251,18.54779 -16.9564,29.61085 -25.14024,44.69683 -3.44341,-2.20157 -8.25743,-3.38821 -8.10105,-7.41728 0.0827,-1.81522 1.65578,-4.06585 2.20464,-5.89947 0.926,-3.14292 4.29276,-7.71471 4.21303,-9.95307 -0.0339,-0.90148 -1.7079,-3.02027 -2.86695,-3.04173 -1.68337,-0.0368 -2.93441,2.81176 -4.89988,3.2073 -2.38554,0.48141 -7.20877,0.0491 -7.58898,-2.02679 -0.22396,-1.25104 1.02719,-5.7615 1.18051,-6.58939 0.40781,-2.08506 4.10265,-3.0172 4.55952,-5.39048 0.509,-2.62779 -0.9812,-4.23144 -1.5178,-6.91441 6.38088,-1.29396 -0.28209,-7.17505 0.16852,-9.2785 0.40782,-1.94094 4.15785,-2.16478 0.84016,-5.06239 -0.49367,-0.42621 -3.88802,-3.63965 -5.05626,-4.22223 -2.71977,-1.34609 -16.39528,-3.70711 -16.20824,-7.59206 0.11039,-1.99613 3.35756,-2.60325 3.5538,-4.2161 0.0307,-0.28516 -1.02413,-3.33915 -1.52393,-4.38475 -0.84629,-1.79682 -5.31383,-2.99573 -7.75763,-3.37595 -1.13452,-0.16852 -5.34756,-1.34302 -6.2337,-1.51473 -1.61899,-0.31889 -5.72164,-2.27516 -6.59859,-2.35795 -5.0072,-0.50593 -7.26396,-4.33262 -12.30182,-2.87615 -0.85242,0.2453 -1.67111,1.56686 -2.53273,1.68338 -2.18624,0.30356 -4.09959,-3.23797 -7.09839,-3.54153 -2.14944,-0.21783 -3.56299,0.0859 -5.56219,-0.33729 -7.10452,-2.7535 -12.40914,-8.93814 -19.73136,-11.80202 -5.41501,-2.12492 -12.11785,-2.44994 -16.37075,-5.7431 -0.96894,0.41394 -16.76936,-4.10265 -21.58951,-5.56219 -5.85656,-1.7723 -11.24704,-3.0448 -16.20517,-4.72817 -0.29436,-0.42008 -10.49274,-3.59365 -15.01546,-4.7159 -3.05706,-7.34982 -4.01067,-16.79389 -12.82003,-18.39141 -0.45687,-0.65925 -0.35568,-1.88882 -1.00573,-2.36409 -8.55792,1.80603 -5.16357,-3.35755 1.00573,-4.04439 3.44954,-0.39555 26.57219,-12.75257 32.73537,-19.24077 6.83775,-4.48593 31.59471,-2.7443 34.24702,-4.55339 4.06892,-2.76576 9.05159,-5.11758 11.97987,-8.09798 0.50286,-6.30423 9.16811,-3.58752 14.50953,-4.88762 2.51739,-0.62551 3.1981,-3.76536 3.87575,-6.41767 3.04785,-4.27436 7.38354,-7.23943 12.31102,-9.61578 0.71444,-3.06933 8.37395,-4.11799 9.28462,-6.57713 7.10146,-2.47447 8.31263,-11.69777 15.18104,-14.50952 5.55606,-2.27517 10.50807,-6.016 16.54246,-6.92667 3.91254,1.01799 8.26663,-1.31236 12.82615,-0.66845 2.2997,0.33116 4.60552,1.80909 6.74577,0.33422 2.45914,0.41394 4.95814,0.33116 6.56792,1.85815 0.0675,1.45647 1.26637,1.77843 1.35222,3.20117 z"
       id="path114"
       style="fill:none;stroke:#100f0d;stroke-width:3.066257;stroke-linecap:butt;stroke-linejoin:miter;stroke-miterlimit:4;stroke-opacity:1;stroke-dasharray:none" />
    <path
       d="m 541.46198,386.69161 c 0.25143,0.47834 23.90147,14.12318 28.1789,19.57193 1.96241,0.63471 3.82362,1.03026 6.40235,0.67151 2.54192,3.58752 7.53072,4.73736 14.00359,4.38168 2.50207,2.40394 5.39968,4.39088 8.10412,6.58325 -1.64965,2.25677 -0.0888,6.13558 1.68338,9.45021 1.11918,2.10345 4.88761,4.76803 4.55032,7.08612 -0.44767,3.07239 -7.52153,2.84242 -8.77256,5.74003 0.86468,2.70444 -0.27596,11.42794 0.85549,12.47967 0.59485,0.55499 2.9712,2.4806 3.53232,3.03253 1.2541,1.22037 3.45874,1.15597 4.38475,2.36715 1.7815,2.32422 1.74777,8.23596 2.21077,11.47393 0.53353,3.91561 -2.21077,35.97333 -4.05359,39.81841 -1.34609,2.7627 -5.50393,3.054 -7.60125,4.72511 -0.44767,-0.94441 -5.87802,5.35981 -7.08612,8.93814 -1.47487,4.82015 -0.81256,9.69857 -2.86082,13.49766 -0.9996,1.83669 -8.77256,8.71124 -12.9948,9.10985 -1.58218,0.14105 -2.55419,-0.34955 -3.71323,0 -8.98107,2.67071 -4.80176,13.02239 -7.08306,21.08665 -0.63778,2.23837 -1.63125,5.02253 0,8.42914 0.73897,1.55766 2.4806,2.31196 4.38168,3.04479 0.25144,1.16825 3.2993,1.98694 4.21917,2.02987 0.47221,0.2453 7.97227,3.18584 9.7875,5.73083 4.83855,-2.41314 6.48513,-8.02439 10.29036,-11.4678 3.34528,-0.092 6.58632,-1.78456 5.73083,-6.08652 2.53886,-0.77883 9.68631,-11.28996 10.46207,-16.02119 2.29356,-1.03027 8.41381,-8.05813 10.63685,-6.58939 3.24716,-3.16438 11.32675,-1.481 11.79589,-7.41421 3.00186,-0.66231 4.09038,-3.23797 8.44447,-2.52966 0.68991,2.34262 10.65831,5.53459 10.97107,5.90561 3.41887,2.14025 4.63004,6.4974 6.23676,10.45594 4.70671,6.51579 6.42075,16.14691 6.91441,25.13717 0.59179,10.66138 3.73777,21.62938 4.90295,32.06692 0.45074,4.11491 1.37981,8.52419 2.01453,12.48273 0.26983,1.64965 1.73243,3.60285 2.02373,5.7247 0.15037,1.03026 1.52086,4.17931 2.02679,5.06239 0.96588,1.70178 2.56953,5.83509 2.53273,7.76377 -0.0491,2.42234 -2.94667,5.15131 -3.55072,7.92934 -0.40168,1.91641 -0.47221,8.70203 -0.16239,10.96493 0.74816,5.62045 -2.85775,9.85802 -3.5354,15.34969 -1.05172,0.0123 -3.78989,1.16211 -5.57445,0.6899 -1.01187,-0.28822 -1.10692,-1.50553 -1.84282,-2.20157 -3.38822,-3.16438 -8.38622,-1.95934 -11.31449,0.17171 -0.48447,0.34342 -7.7147,12.18531 -8.10718,16.53326 -0.14105,1.74777 0.65004,3.26863 0.51513,4.71897 -0.22985,2.37941 -1.61592,6.12945 -3.03253,8.26663 -2.61552,3.93094 -9.67711,3.60592 -12.9948,7.75763 -1.12532,1.40434 -5.20037,15.26383 -5.40581,18.06025 -0.17171,2.60939 0.90761,4.94894 0.5182,7.07692 -0.49674,2.61859 -16.90428,29.2153 -19.40941,31.38928 -29.12638,1.12531 -61.74215,1.6987 -91.09237,2.0176 -1.19277,-1.22957 0.0245,-3.93708 -1.02106,-5.40275 -46.58871,-1.67111 -96.99491,-0.19011 -143.23407,-1.68337 2.95281,-3.78377 16.61605,-23.58565 19.39101,-29.016 -1.05172,-4.85081 5.70937,-5.31995 5.23717,-10.11864 4.00453,-2.43461 7.10758,-10.81776 8.27276,-16.53326 0.33729,-1.66498 3.92788,-23.31276 4.04439,-26.15211 0.15037,-3.87268 2.87002,-7.75456 1.52393,-12.98866 0.95668,-0.66232 -0.34342,-9.75377 -0.67457,-13.83802 -0.57033,-6.98187 -3.20731,-15.91388 -5.57446,-22.43581 -1.33689,-3.68257 -12.05039,-29.53725 -12.82922,-33.57244 -1.02413,-5.33529 -6.62925,-10.38542 -5.22183,-16.19904 1.02106,-4.25597 7.14437,-14.93574 8.26663,-16.36155 -0.11039,-0.90148 -3.19811,-15.48766 -5.73391,-21.09891 1.2541,-0.34342 1.0548,-5.15745 2.5358,-6.2429 3.73777,-2.7443 5.92094,-9.16811 7.75456,-14.00053 0.63472,-1.69871 4.7435,-8.87682 5.56833,-10.96494 0.95667,-0.44767 3.30542,-17.20477 3.54152,-20.40901 0.2913,-3.91561 0.16558,-12.75256 -2.19237,-13.16344 1.90108,0.0827 3.36368,-2.71057 6.7427,-3.36981 2.66458,-0.51514 4.9704,-0.70218 5.40274,-3.54766 0.13198,-0.84629 0.41395,-4.25597 0.509,-5.05933 0.22077,-2.05439 -0.87081,-4.52273 -0.84628,-6.58019 0.39248,-1.01493 1.12225,-1.68644 2.02066,-2.19237 5.75843,4.33875 5.24636,-5.4886 9.10985,-5.23103 1.55459,0.10425 2.02373,1.86428 3.7163,2.19237 4.81096,0.092 13.28916,-20.28942 16.70804,-24.29396 1.12838,0.0461 2.15251,0.21464 2.52966,1.01187 -0.0429,1.76616 -5.16358,14.50953 -5.39661,20.58072 -0.20238,4.84162 -0.18692,10.04506 0.17171,13.83495 0.22396,2.5174 9.35515,6.94201 10.61845,4.73123 -0.10107,-2.7535 5.4334,-10.14011 6.75189,-12.65444 1.78457,-4.63005 3.33916,-17.85788 3.0264,-18.2197 -1.60672,-8.26356 -3.03253,-21.62938 7.59512,-22.27636 0.79722,-0.37715 7.07385,-5.9332 10.97413,-5.73696 1.08852,0.0613 2.18318,0.92294 3.36982,0.85242 3.2441,-0.20557 6.19997,-2.54193 9.10985,-3.03867 0.16263,-1.56992 -0.43234,-2.38861 -0.84016,-3.37594 -3.27476,-1.61286 -9.83961,-1.7815 -11.31142,-5.06547 -3.12758,-6.99719 8.61312,-20.63591 10.4682,-21.9268 0.8095,-2.7351 -1.4718,-3.25023 -1.69257,-4.39088 3.29316,-0.20237 12.71883,-1.78456 12.82615,-3.02946 1.10692,-0.53353 2.59406,-0.67765 3.70711,-1.18971 0.68377,0.7359 11.00173,6.51886 14.67817,9.95614 0.91375,0.85548 6.68444,2.55726 7.59512,2.36101 5.39355,-1.14984 9.86721,2.11879 14.67817,3.37595"
       id="path116"
       style="fill:#ffffff;fill-opacity:1;fill-rule:evenodd;stroke:none" />
    <path
       d="m 541.46198,386.69161 c 0.25143,0.47834 23.90147,14.12318 28.1789,19.57193 1.96241,0.63471 3.82362,1.03026 6.40235,0.67151 2.54192,3.58752 7.53072,4.73736 14.00359,4.38168 2.50207,2.40394 5.39968,4.39088 8.10412,6.58325 -1.64965,2.25677 -0.0888,6.13558 1.68338,9.45021 1.11918,2.10345 4.88761,4.76803 4.55032,7.08612 -0.44767,3.07239 -7.52153,2.84242 -8.77256,5.74003 0.86468,2.70444 -0.27596,11.42794 0.85549,12.47967 0.59485,0.55499 2.9712,2.4806 3.53232,3.03253 1.2541,1.22037 3.45874,1.15597 4.38475,2.36715 1.7815,2.32422 1.74777,8.23596 2.21077,11.47393 0.53353,3.91561 -2.21077,35.97333 -4.05359,39.81841 -1.34609,2.7627 -5.50393,3.054 -7.60125,4.72511 -0.44767,-0.94441 -5.87802,5.35981 -7.08612,8.93814 -1.47487,4.82015 -0.81256,9.69857 -2.86082,13.49766 -0.9996,1.83669 -8.77256,8.71124 -12.9948,9.10985 -1.58218,0.14105 -2.55419,-0.34955 -3.71323,0 -8.98107,2.67071 -4.80176,13.02239 -7.08306,21.08665 -0.63778,2.23837 -1.63125,5.02253 0,8.42914 0.73897,1.55766 2.4806,2.31196 4.38168,3.04479 0.25144,1.16825 3.2993,1.98694 4.21917,2.02987 0.47221,0.2453 7.97227,3.18584 9.7875,5.73083 4.83855,-2.41314 6.48513,-8.02439 10.29036,-11.4678 3.34528,-0.092 6.58632,-1.78456 5.73083,-6.08652 2.53886,-0.77883 9.68631,-11.28996 10.46207,-16.02119 2.29356,-1.03027 8.41381,-8.05813 10.63685,-6.58939 3.24716,-3.16438 11.32675,-1.481 11.79589,-7.41421 3.00186,-0.66231 4.09038,-3.23797 8.44447,-2.52966 0.68991,2.34262 10.65831,5.53459 10.97107,5.90561 3.41887,2.14025 4.63004,6.4974 6.23676,10.45594 4.70671,6.51579 6.42075,16.14691 6.91441,25.13717 0.59179,10.66138 3.73777,21.62938 4.90295,32.06692 0.45074,4.11491 1.37981,8.52419 2.01453,12.48273 0.26983,1.64965 1.73243,3.60285 2.02373,5.7247 0.15037,1.03026 1.52086,4.17931 2.02679,5.06239 0.96588,1.70178 2.56953,5.83509 2.53273,7.76377 -0.0491,2.42234 -2.94667,5.15131 -3.55072,7.92934 -0.40168,1.91641 -0.47221,8.70203 -0.16239,10.96493 0.74816,5.62045 -2.85775,9.85802 -3.5354,15.34969 -1.05172,0.0123 -3.78989,1.16211 -5.57445,0.6899 -1.01187,-0.28822 -1.10692,-1.50553 -1.84282,-2.20157 -3.38822,-3.16438 -8.38622,-1.95934 -11.31449,0.17171 -0.48447,0.34342 -7.7147,12.18531 -8.10718,16.53326 -0.14105,1.74777 0.65004,3.26863 0.51513,4.71897 -0.22985,2.37941 -1.61592,6.12945 -3.03253,8.26663 -2.61552,3.93094 -9.67711,3.60592 -12.9948,7.75763 -1.12532,1.40434 -5.20037,15.26383 -5.40581,18.06025 -0.17171,2.60939 0.90761,4.94894 0.5182,7.07692 -0.49674,2.61859 -16.90428,29.2153 -19.40941,31.38928 -29.12638,1.12531 -61.74215,1.6987 -91.09237,2.0176 -1.19277,-1.22957 0.0245,-3.93708 -1.02106,-5.40275 -46.58871,-1.67111 -96.99491,-0.19011 -143.23407,-1.68337 2.95281,-3.78377 16.61605,-23.58565 19.39101,-29.016 -1.05172,-4.85081 5.70937,-5.31995 5.23717,-10.11864 4.00453,-2.43461 7.10758,-10.81776 8.27276,-16.53326 0.33729,-1.66498 3.92788,-23.31276 4.04439,-26.15211 0.15037,-3.87268 2.87002,-7.75456 1.52393,-12.98866 0.95668,-0.66232 -0.34342,-9.75377 -0.67457,-13.83802 -0.57033,-6.98187 -3.20731,-15.91388 -5.57446,-22.43581 -1.33689,-3.68257 -12.05039,-29.53725 -12.82922,-33.57244 -1.02413,-5.33529 -6.62925,-10.38542 -5.22183,-16.19904 1.02106,-4.25597 7.14437,-14.93574 8.26663,-16.36155 -0.11039,-0.90148 -3.19811,-15.48766 -5.73391,-21.09891 1.2541,-0.34342 1.0548,-5.15745 2.5358,-6.2429 3.73777,-2.7443 5.92094,-9.16811 7.75456,-14.00053 0.63472,-1.69871 4.7435,-8.87682 5.56833,-10.96494 0.95667,-0.44767 3.30542,-17.20477 3.54152,-20.40901 0.2913,-3.91561 0.16558,-12.75256 -2.19237,-13.16344 1.90108,0.0827 3.36368,-2.71057 6.7427,-3.36981 2.66458,-0.51514 4.9704,-0.70218 5.40274,-3.54766 0.13198,-0.84629 0.41395,-4.25597 0.509,-5.05933 0.22077,-2.05439 -0.87081,-4.52273 -0.84628,-6.58019 0.39248,-1.01493 1.12225,-1.68644 2.02066,-2.19237 5.75843,4.33875 5.24636,-5.4886 9.10985,-5.23103 1.55459,0.10425 2.02373,1.86428 3.7163,2.19237 4.81096,0.092 13.28916,-20.28942 16.70804,-24.29396 1.12838,0.0461 2.15251,0.21464 2.52966,1.01187 -0.0429,1.76616 -5.16358,14.50953 -5.39661,20.58072 -0.20238,4.84162 -0.18692,10.04506 0.17171,13.83495 0.22396,2.5174 9.35515,6.94201 10.61845,4.73123 -0.10107,-2.7535 5.4334,-10.14011 6.75189,-12.65444 1.78457,-4.63005 3.33916,-17.85788 3.0264,-18.2197 -1.60672,-8.26356 -3.03253,-21.62938 7.59512,-22.27636 0.79722,-0.37715 7.07385,-5.9332 10.97413,-5.73696 1.08852,0.0613 2.18318,0.92294 3.36982,0.85242 3.2441,-0.20557 6.19997,-2.54193 9.10985,-3.03867 0.16263,-1.56992 -0.43234,-2.38861 -0.84016,-3.37594 -3.27476,-1.61286 -9.83961,-1.7815 -11.31142,-5.06547 -3.12758,-6.99719 8.61312,-20.63591 10.4682,-21.9268 0.8095,-2.7351 -1.4718,-3.25023 -1.69257,-4.39088 3.29316,-0.20237 12.71883,-1.78456 12.82615,-3.02946 1.10692,-0.53353 2.59406,-0.67765 3.70711,-1.18971 0.68377,0.7359 11.00173,6.51886 14.67817,9.95614 0.91375,0.85548 6.68444,2.55726 7.59512,2.36101 5.39355,-1.14984 9.86721,2.11879 14.67817,3.37595 z"
       id="path118"
       style="fill:none;stroke:#100f0d;stroke-width:3.066257;stroke-linecap:butt;stroke-linejoin:miter;stroke-miterlimit:4;stroke-opacity:1;stroke-dasharray:none" />
    <path
       d="m 95.569937,620.51519 c 0,-6.92361 -0.26983,-12.35089 -0.542727,-17.78123 l 10.45287,0 0.54273,10.59085 0.40781,0 c 3.66418,-6.24903 9.77216,-12.08412 20.76776,-12.08412 8.82469,0 15.61031,5.43035 18.46193,13.16651 l 0.26983,0 c 2.03906,-3.79909 4.74964,-6.51579 7.46634,-8.55179 3.93707,-2.98653 8.14398,-4.61472 14.38688,-4.61472 8.82469,0 21.72136,5.70324 21.72136,28.507 l 0,38.68696 -11.67324,0 0,-37.1937 c 0,-12.76176 -4.7527,-20.22503 -14.25503,-20.22503 -6.92054,0 -12.08105,5.01946 -14.25196,10.7227 -0.54273,1.76617 -0.95054,3.93708 -0.95054,5.97307 l 0,40.72296 -11.67324,0 0,-39.36767 c 0,-10.58779 -4.61472,-18.05106 -13.70924,-18.05106 -7.33142,0 -12.89667,5.97307 -14.79775,11.94307 -0.67765,1.76617 -0.95054,3.80216 -0.95054,5.83816 l 0,39.6375 -11.673243,0 0,-47.91946 z"
       id="path120"
       style="fill:#231f20;fill-opacity:1;fill-rule:nonzero;stroke:none" />
    <path
       d="m 263.75414,650.51545 c 0,6.78869 0.13786,12.76176 0.54579,17.9192 l -10.58778,0 -0.68071,-10.7227 -0.2729,0 c -2.98347,5.29543 -10.04199,12.21904 -21.7183,12.21904 -10.31489,0 -22.66884,-5.84122 -22.66884,-28.77989 l 0,-38.41714 11.94614,0 0,36.24623 c 0,12.4858 3.93401,21.03759 14.66284,21.03759 8.006,0 13.57126,-5.56219 15.74217,-10.9956 0.68071,-1.62818 1.08852,-3.79909 1.08852,-6.10799 l 0,-40.18023 11.94307,0 0,47.78149 z"
       id="path122"
       style="fill:#231f20;fill-opacity:1;fill-rule:nonzero;stroke:none" />
    <path
       d="m 327.82665,628.52732 c 0,-1.90415 -0.13492,-3.66725 -0.68071,-5.29543 -2.17091,-7.05852 -7.87108,-12.7587 -16.69577,-12.7587 -11.40341,0 -19.54739,9.63418 -19.54739,24.97467 0,12.76176 6.65378,23.62244 19.41247,23.62244 7.46327,0 14.11705,-4.61471 16.56086,-12.35395 0.67764,-1.90108 0.95054,-4.20997 0.95054,-6.38088 l 0,-11.80815 z m 11.94307,30.27009 c 0,15.20557 -3.11838,24.29702 -9.36435,30.13517 -6.5158,5.83815 -15.74523,7.87415 -24.02719,7.87415 -7.87415,0 -16.56085,-1.90108 -21.85322,-5.43034 l 2.98347,-9.22944 c 4.34489,2.85162 11.13052,5.29236 19.2745,5.29236 12.21903,0 21.17863,-6.38088 21.17863,-23.07665 l 0,-7.1965 -0.26983,0 c -3.53232,6.11105 -10.72576,10.9956 -20.9088,10.9956 -16.28796,0 -27.9612,-13.84416 -27.9612,-32.17117 0,-22.26103 14.52486,-34.7499 29.73043,-34.7499 11.40034,0 17.51139,5.83509 20.49486,11.2685 l 0.2729,0 0.40781,-9.77523 10.58778,0 c -0.40781,4.61472 -0.54579,9.91014 -0.54579,17.91921 l 0,38.14424 z"
       id="path124"
       style="fill:#231f20;fill-opacity:1;fill-rule:nonzero;stroke:none" />
    <path
       d="m 422.0282,669.93099 c -4.61472,0 -7.87415,-3.66725 -7.87415,-8.55486 0,-4.88455 3.39435,-8.55179 8.14398,-8.55179 4.7527,0 8.01213,3.52926 8.01213,8.55179 0,4.88761 -3.25943,8.55486 -8.14705,8.55486 l -0.13491,0 z"
       id="path126"
       style="fill:#231f20;fill-opacity:1;fill-rule:nonzero;stroke:none" />
    <path
       d="m 479.03912,660.97138 c 11.40341,0 19.9552,-10.72576 19.9552,-25.65844 0,-11.13051 -5.56526,-25.11264 -19.68231,-25.11264 -13.98213,0 -20.09318,13.03159 -20.09318,25.52046 0,14.38994 8.14705,25.25062 19.68537,25.25062 l 0.13492,0 z m -0.40781,8.95961 c -17.64325,0 -31.49047,-13.0316 -31.49047,-33.80242 0,-21.9912 14.5218,-34.88788 32.57899,-34.88788 18.86668,0 31.62537,13.71231 31.62537,33.66751 0,24.43193 -16.9656,35.02279 -32.57898,35.02279 l -0.13491,0 z"
       id="path128"
       style="fill:#231f20;fill-opacity:1;fill-rule:nonzero;stroke:none" />
    <path
       d="m 526.54771,623.23189 c 0,-7.73617 -0.13811,-14.38688 -0.54273,-20.49793 l 10.45287,0 0.54273,12.89668 0.40474,0 c 2.9896,-8.82162 10.32102,-14.38995 18.32702,-14.38995 1.22037,0 2.17398,0.13492 3.25637,0.40782 l 0,11.13051 c -1.35529,-0.13492 -2.57566,-0.26983 -4.20691,-0.26983 -8.41688,0 -14.38688,6.37781 -16.01506,15.2025 -0.2729,1.7631 -0.40781,3.66418 -0.40781,5.70017 l 0,35.02279 -11.94921,0 0.13811,-45.20276 z"
       id="path130"
       style="fill:#231f20;fill-opacity:1;fill-rule:nonzero;stroke:none" />
    <path
       d="m 615.05522,628.52732 c 0,-1.90415 -0.13492,-3.66725 -0.68071,-5.29543 -2.17091,-7.05852 -7.87108,-12.7587 -16.69577,-12.7587 -11.40341,0 -19.54739,9.63418 -19.54739,24.97467 0,12.76176 6.65378,23.62244 19.41247,23.62244 7.46327,0 14.11705,-4.61471 16.56086,-12.35395 0.67764,-1.90108 0.95054,-4.20997 0.95054,-6.38088 l 0,-11.80815 z m 11.94307,30.27009 c 0,15.20557 -3.11839,24.29702 -9.36742,30.13517 -6.51579,5.83815 -15.74216,7.87415 -24.02719,7.87415 -7.87108,0 -16.55779,-1.90108 -21.85015,-5.43034 l 2.98347,-9.22944 c 4.34489,2.85162 11.13051,5.29236 19.27449,5.29236 12.21904,0 21.17864,-6.38088 21.17864,-23.07665 l 0,-7.1965 -0.26983,0 c -3.53233,6.11105 -10.72577,10.9956 -20.90881,10.9956 -16.28795,0 -27.96119,-13.84416 -27.96119,-32.17117 0,-22.26103 14.52179,-34.7499 29.72736,-34.7499 11.40341,0 17.51139,5.83509 20.49793,11.2685 l 0.27289,0 0.40782,-9.77523 10.58778,0 c -0.40781,4.61472 -0.54579,9.91014 -0.54579,17.91921 l 0,38.14424 z"
       id="path132"
       style="fill:#231f20;fill-opacity:1;fill-rule:nonzero;stroke:none" />
  </g>
</svg>
